<?xml version="1.0" encoding="UTF-8"?>
<svg width="32" height="32" viewBox="0 0 200 200" version="1.1" xmlns="http://www.w3.org/2000/svg">
  <!-- Sol -->
  <g transform="translate(100, 100)">
    <!-- Raios do sol -->
    <path d="M0,-60 L0,-80 M40,-40 L55,-55 M60,0 L80,0 M40,40 L55,55 M0,60 L0,80 M-40,40 L-55,55 M-60,0 L-80,0 M-40,-40 L-55,-55" 
          stroke="#FF8C00" 
          stroke-width="12" 
          stroke-linecap="round"/>
    <!-- Círculo central do sol -->
    <circle cx="0" cy="0" r="30" fill="#FF8C00"/>
  </g>
  
  <!-- Campos/Colinas -->
  <path d="M20,140 C60,120 100,140 140,120 C180,100 200,120 200,120 L200,200 L0,200 L0,120 C0,120 20,140 60,120" 
        fill="#4CAF50"/>
</svg> 